<?xml version="1.0" encoding="UTF-8" standalone="no"?>
<!-- Generator: Adobe Illustrator 23.0.4, SVG Export Plug-In . SVG Version: 6.00 Build 0)  -->

<svg
   xmlns:dc="http://purl.org/dc/elements/1.1/"
   xmlns:cc="http://creativecommons.org/ns#"
   xmlns:rdf="http://www.w3.org/1999/02/22-rdf-syntax-ns#"
   xmlns:svg="http://www.w3.org/2000/svg"
   xmlns="http://www.w3.org/2000/svg"
   xmlns:sodipodi="http://sodipodi.sourceforge.net/DTD/sodipodi-0.dtd"
   xmlns:inkscape="http://www.inkscape.org/namespaces/inkscape"
   version="1.1"
   id="Ebene_1"
   x="0px"
   y="0px"
   viewBox="0 0 99.999997 99.999999"
   xml:space="preserve"
   inkscape:version="0.91 r13725"
   sodipodi:docname="fairydust.svg"
   width="100"
   height="100"><metadata
     id="metadata118"><rdf:RDF><cc:Work
         rdf:about=""><dc:format>image/svg+xml</dc:format><dc:type
           rdf:resource="http://purl.org/dc/dcmitype/StillImage" /><dc:title /></cc:Work></rdf:RDF></metadata><defs
     id="defs116" /><sodipodi:namedview
     pagecolor="#ffffff"
     bordercolor="#666666"
     borderopacity="1"
     objecttolerance="10"
     gridtolerance="10"
     guidetolerance="10"
     inkscape:pageopacity="0"
     inkscape:pageshadow="2"
     inkscape:window-width="1440"
     inkscape:window-height="718"
     id="namedview114"
     showgrid="false"
     fit-margin-top="0"
     fit-margin-left="0"
     fit-margin-right="0"
     fit-margin-bottom="0"
     inkscape:zoom="1.0960736"
     inkscape:cx="-127.21864"
     inkscape:cy="66.466067"
     inkscape:window-x="0"
     inkscape:window-y="1"
     inkscape:window-maximized="0"
     inkscape:current-layer="Ebene_1" /><style
     type="text/css"
     id="style3">
	.st0{fill:none;stroke:#99BA00;stroke-width:8;stroke-linecap:round;stroke-linejoin:round;stroke-miterlimit:1.5;}
	.st1{fill:none;stroke:#FFC600;stroke-width:8;stroke-linecap:round;stroke-linejoin:round;stroke-miterlimit:10;}
	.st2{fill:none;stroke:#0076BA;stroke-width:8;stroke-linecap:round;stroke-linejoin:round;stroke-miterlimit:1.5;}
</style><path
     style="fill:none;stroke:#0076ba;stroke-width:0.98695874;stroke-linecap:round;stroke-linejoin:round;stroke-miterlimit:1.5"
     inkscape:connector-curvature="0"
     id="path112"
     d="M 59.328966,68.245254 C 60.932774,63.384482 71.073775,29.914244 57.51543,15.171548 53.345529,10.631538 51.618351,9.2127851 50.976828,7.1525087 50.446338,5.437668 49.755467,1.2307564 49.854163,0.14510183 49.8665,0.00939501 49.237313,5.1539173 48.287366,7.1401718 c -1.714841,3.5777252 -5.675013,4.9101192 -4.774413,7.1677872 1.542123,3.849139 7.982028,3.565389 11.004589,5.712024 4.342619,3.084246 4.25626,7.784637 2.060277,10.560458 -2.627778,3.318649 -11.276004,3.76278 -13.916118,0.06169 -3.133594,-4.367292 1.048644,-6.082133 0.308424,-9.943609 -0.357772,-1.875221 -2.33169,-2.232994 -4.009519,-0.197392 -6.748331,8.228769 -4.058868,30.830123 -1.110329,40.119872 3.787454,11.917527 17.358137,9.265075 17.247104,5.428273 -0.0987,-3.367996 -10.387741,-3.466692 -14.212206,1.764189 -3.39267,4.626369 -6.008111,7.377517 -6.143818,31.446972 C 24.09454,73.772222 32.335645,57.62311 49.854163,57.598436 67.533061,57.573762 76.835147,78.164189 64.103379,99.112387 66.077297,85.048226 64.041694,71.255478 55.282435,72.341132 50.384653,72.945644 50.594382,87.601981 49.854163,99.507171 48.928889,87.774699 46.75758,76.005216 44.05578,72.698905"
     class="st2" /></svg>