<?xml version="1.0" encoding="UTF-8" standalone="no"?>
<!-- Generator: Adobe Illustrator 23.0.4, SVG Export Plug-In . SVG Version: 6.00 Build 0)  -->

<svg
   xmlns:dc="http://purl.org/dc/elements/1.1/"
   xmlns:cc="http://creativecommons.org/ns#"
   xmlns:rdf="http://www.w3.org/1999/02/22-rdf-syntax-ns#"
   xmlns:svg="http://www.w3.org/2000/svg"
   xmlns="http://www.w3.org/2000/svg"
   xmlns:sodipodi="http://sodipodi.sourceforge.net/DTD/sodipodi-0.dtd"
   xmlns:inkscape="http://www.inkscape.org/namespaces/inkscape"
   version="1.1"
   id="Ebene_1"
   x="0px"
   y="0px"
   viewBox="0 0 100 100"
   xml:space="preserve"
   inkscape:version="0.91 r13725"
   sodipodi:docname="fairydustsy.svg"
   width="100"
   height="100"><metadata
     id="metadata118"><rdf:RDF><cc:Work
         rdf:about=""><dc:format>image/svg+xml</dc:format><dc:type
           rdf:resource="http://purl.org/dc/dcmitype/StillImage" /><dc:title /></cc:Work></rdf:RDF></metadata><defs
     id="defs116" /><sodipodi:namedview
     pagecolor="#ffffff"
     bordercolor="#666666"
     borderopacity="1"
     objecttolerance="10"
     gridtolerance="10"
     guidetolerance="10"
     inkscape:pageopacity="0"
     inkscape:pageshadow="2"
     inkscape:window-width="1325"
     inkscape:window-height="743"
     id="namedview114"
     showgrid="false"
     fit-margin-top="0"
     fit-margin-left="0"
     fit-margin-right="0"
     fit-margin-bottom="0"
     inkscape:zoom="3.1001642"
     inkscape:cx="63.321644"
     inkscape:cy="77.55044"
     inkscape:window-x="0"
     inkscape:window-y="0"
     inkscape:window-maximized="0"
     inkscape:current-layer="Ebene_1" /><style
     type="text/css"
     id="style3">
	.st0{fill:none;stroke:#99BA00;stroke-width:8;stroke-linecap:round;stroke-linejoin:round;stroke-miterlimit:1.5;}
	.st1{fill:none;stroke:#FFC600;stroke-width:8;stroke-linecap:round;stroke-linejoin:round;stroke-miterlimit:10;}
	.st2{fill:none;stroke:#0076BA;stroke-width:8;stroke-linecap:round;stroke-linejoin:round;stroke-miterlimit:1.5;}
</style><path
     id="path109"
     style="fill:none;stroke:#ffc600;stroke-width:1.77290487;stroke-linecap:round;stroke-linejoin:round;stroke-miterlimit:10"
     d="M 71.397281,68.016023 67.49689,99.108342 63.928919,80.98039 71.397281,68.016023 Z M 36.057752,80.983935 32.113039,99.111887 28.58939,68.019568 36.057752,80.983935 Z m 13.930816,18.130389 -6.183006,-30.117221 6.116522,-16.133435 0.06648,46.250656 z m 16.063406,-79.955793 -5.23007,1.817228 1.063743,33.374934 4.166327,-35.192162 z m -32.127033,0.01131 16.066951,-18.28308196 0,11.94494696 -16.066951,6.338135 z m 0,-0.01131 4.166327,35.214323 1.063743,-33.352773 -5.23007,-1.86155 z m 16.063627,-18.27222247 0,11.94494647 16.06695,6.360296 L 49.988568,0.88630853 Z M 33.924941,19.171386 l 5.23007,1.839389 10.836881,-8.199685 -16.066951,6.360296 z m 32.127033,-0.0062 -5.23007,1.817227 -10.836881,-8.177524 16.066951,6.360297 z M 61.910029,54.374628 49.942921,52.867659 60.846286,20.999694 61.910029,54.374628 Z M 49.92009,52.854145 38.08595,54.361114 39.149693,21.008341 49.92009,52.854145 Z m 0.06848,46.260179 6.183005,-30.117221 -6.249489,-16.133435 0.06648,46.250656 z M 63.942214,80.988589 71.410576,68.00206 61.925535,54.350693 63.942214,80.988589 Z m -27.884462,0 2.038841,-26.637896 -9.485041,13.651367 7.4462,12.986529 z" /></svg>