<?xml version="1.0" encoding="UTF-8" standalone="no"?>
<!-- Generator: Adobe Illustrator 23.0.4, SVG Export Plug-In . SVG Version: 6.00 Build 0)  -->

<svg
   xmlns:dc="http://purl.org/dc/elements/1.1/"
   xmlns:cc="http://creativecommons.org/ns#"
   xmlns:rdf="http://www.w3.org/1999/02/22-rdf-syntax-ns#"
   xmlns:svg="http://www.w3.org/2000/svg"
   xmlns="http://www.w3.org/2000/svg"
   xmlns:sodipodi="http://sodipodi.sourceforge.net/DTD/sodipodi-0.dtd"
   xmlns:inkscape="http://www.inkscape.org/namespaces/inkscape"
   version="1.1"
   id="Ebene_1"
   x="0px"
   y="0px"
   viewBox="0 0 99.999998 99.999999"
   xml:space="preserve"
   inkscape:version="0.91 r13725"
   sodipodi:docname="fairydustsg.svg"
   width="100"
   height="100"><metadata
     id="metadata118"><rdf:RDF><cc:Work
         rdf:about=""><dc:format>image/svg+xml</dc:format><dc:type
           rdf:resource="http://purl.org/dc/dcmitype/StillImage" /><dc:title></dc:title></cc:Work></rdf:RDF></metadata><defs
     id="defs116" /><sodipodi:namedview
     pagecolor="#ffffff"
     bordercolor="#666666"
     borderopacity="1"
     objecttolerance="10"
     gridtolerance="10"
     guidetolerance="10"
     inkscape:pageopacity="0"
     inkscape:pageshadow="2"
     inkscape:window-width="1247"
     inkscape:window-height="694"
     id="namedview114"
     showgrid="false"
     inkscape:zoom="3.1001642"
     inkscape:cx="94.667945"
     inkscape:cy="52.095211"
     inkscape:window-x="0"
     inkscape:window-y="0"
     inkscape:window-maximized="0"
     inkscape:current-layer="Ebene_1"
     fit-margin-top="0"
     fit-margin-left="0"
     fit-margin-right="0"
     fit-margin-bottom="0" /><style
     type="text/css"
     id="style3">
	.st0{fill:none;stroke:#99BA00;stroke-width:8;stroke-linecap:round;stroke-linejoin:round;stroke-miterlimit:1.5;}
	.st1{fill:none;stroke:#FFC600;stroke-width:8;stroke-linecap:round;stroke-linejoin:round;stroke-miterlimit:10;}
	.st2{fill:none;stroke:#0076BA;stroke-width:8;stroke-linecap:round;stroke-linejoin:round;stroke-miterlimit:1.5;}
</style><path
     inkscape:connector-curvature="0"
     d="m 56.007506,82.095125 c 4.282907,7.376119 9.315324,13.740996 14.145492,17.417158 2.379393,-12.491814 0.571055,-25.340537 -8.35167,-37.713382 M 43.788132,83.641731 C 39.505224,91.017849 34.782129,95.848018 29.963857,99.52418 27.584464,87.032366 28.750367,74.183643 37.684988,61.810798 M 50.236287,11.795953 C 29.261936,24.716058 32.295663,57.147187 49.831791,99.512283 61.942902,66.355439 74.506098,31.41405 50.236287,11.795953 Z M 46.77427,0.48193818 c 4.199629,8.22080352 5.674853,19.86793282 1.641782,35.20312282 -3.878411,14.752237 1.748854,29.183257 2.962344,31.657826"
     style="fill:none;stroke:#99ba00;stroke-width:0.95175725;stroke-linecap:round;stroke-linejoin:round;stroke-miterlimit:1.5"
     id="path14" /><g
     id="g16"
     transform="matrix(0.11896966,0,0,0.11896966,66.951529,-226.89046)" /><g
     id="g22"
     transform="matrix(0.11896966,0,0,0.12601028,66.951529,-232.15093)" /><g
     id="g26"
     transform="matrix(0.11896966,0,0,0.11896966,68.317931,-228.6483)" /><g
     id="g34"
     transform="matrix(-0.06848001,0.09882346,-0.08247036,-0.05714803,351.02014,-37.580025)" /></svg>