<?xml version="1.0" encoding="UTF-8" standalone="no"?>
<svg
   xmlns:dc="http://purl.org/dc/elements/1.1/"
   xmlns:cc="http://creativecommons.org/ns#"
   xmlns:rdf="http://www.w3.org/1999/02/22-rdf-syntax-ns#"
   xmlns:svg="http://www.w3.org/2000/svg"
   xmlns="http://www.w3.org/2000/svg"
   height="100"
   width="100"
   viewBox="0 0 100 100"
   y="0px"
   x="0px"
   id="Ebene_1"
   version="1.1">
  <metadata
     id="metadata9">
    <rdf:RDF>
      <cc:Work
         rdf:about="">
        <dc:format>image/svg+xml</dc:format>
        <dc:type
           rdf:resource="http://purl.org/dc/dcmitype/StillImage" />
      </cc:Work>
    </rdf:RDF>
  </metadata>
  <defs
     id="defs7" />
  <g
     id="text2"
     style="font-size:130px"
     aria-label="?">
    <path
       id="path11"
       style="font-size:130px"
       d="M 31.319336,82.876953 H 44.205078 V 99 H 31.319336 Z M 43.824219,73.545898 H 31.700195 v -9.77539 q 0,-6.411133 1.777344,-10.53711 1.777344,-4.125976 7.490234,-9.584961 l 5.712891,-5.649414 q 3.618164,-3.364257 5.205078,-6.347656 1.650391,-2.983398 1.650391,-6.09375 0,-5.649414 -4.189453,-9.140625 -4.125977,-3.491211 -10.981446,-3.491211 -5.014648,0 -10.727539,2.22168 -5.649414,2.22168 -11.80664,6.474609 V 9.6884766 Q 21.797852,6.0703125 27.891602,4.2929687 34.048828,2.515625 40.586914,2.515625 q 11.679688,0 18.725586,6.1572266 7.109375,6.1572264 7.109375,16.2500004 0,4.824218 -2.285156,9.204101 -2.285157,4.316406 -7.998047,9.775391 l -5.585938,5.458984 q -2.983398,2.983399 -4.252929,4.697266 -1.206055,1.65039 -1.713868,3.237304 -0.380859,1.333008 -0.571289,3.237305 -0.190429,1.904297 -0.190429,5.205078 z" />
  </g>
</svg>
