<?xml version="1.0" encoding="UTF-8" standalone="no"?>
<svg
   xmlns:dc="http://purl.org/dc/elements/1.1/"
   xmlns:cc="http://creativecommons.org/ns#"
   xmlns:rdf="http://www.w3.org/1999/02/22-rdf-syntax-ns#"
   xmlns:svg="http://www.w3.org/2000/svg"
   xmlns="http://www.w3.org/2000/svg"
   height="100"
   width="100"
   viewBox="0 0 100 100"
   y="0px"
   x="0px"
   id="Ebene_1"
   version="1.1">
  <metadata
     id="metadata9">
    <rdf:RDF>
      <cc:Work
         rdf:about="">
        <dc:format>image/svg+xml</dc:format>
        <dc:type
           rdf:resource="http://purl.org/dc/dcmitype/StillImage" />
      </cc:Work>
    </rdf:RDF>
  </metadata>
  <defs
     id="defs7" />
  <g
     id="text2"
     style="font-size:130px"
     aria-label="a">
    <path
       id="path11"
       style="font-size:130px"
       d="m 51.060547,63.262695 q -14.155274,0 -19.614258,3.237305 -5.458984,3.237305 -5.458984,11.044922 0,6.220703 4.0625,9.902344 4.125976,3.618164 11.171875,3.618164 9.711914,0 15.551757,-6.855469 5.903321,-6.918945 5.903321,-18.344727 V 63.262695 Z M 74.356445,58.438477 V 99 H 62.676758 V 88.208984 q -3.999024,6.47461 -9.965821,9.584961 -5.966796,3.046875 -14.599609,3.046875 -10.917969,0 -17.392578,-6.09375 -6.411133,-6.157226 -6.411133,-16.440429 0,-11.997071 7.998047,-18.090821 8.061523,-6.09375 23.994141,-6.09375 h 16.376953 v -1.142578 q 0,-8.061523 -5.332031,-12.441406 -5.268555,-4.443359 -14.853516,-4.443359 -6.09375,0 -11.870117,1.45996 -5.776367,1.459961 -11.108399,4.379883 V 31.143555 q 6.411133,-2.475586 12.441407,-3.681641 6.030273,-1.269531 11.743164,-1.269531 15.424804,0 23.041992,7.998047 7.617187,7.998047 7.617187,24.248047 z" />
  </g>
</svg>
