<?xml version="1.0" encoding="UTF-8" standalone="no"?>
<svg
   xmlns:dc="http://purl.org/dc/elements/1.1/"
   xmlns:cc="http://creativecommons.org/ns#"
   xmlns:rdf="http://www.w3.org/1999/02/22-rdf-syntax-ns#"
   xmlns:svg="http://www.w3.org/2000/svg"
   xmlns="http://www.w3.org/2000/svg"
   height="100"
   width="100"
   viewBox="0 0 100 100"
   y="0px"
   x="0px"
   id="Ebene_1"
   version="1.1">
  <metadata
     id="metadata9">
    <rdf:RDF>
      <cc:Work
         rdf:about="">
        <dc:format>image/svg+xml</dc:format>
        <dc:type
           rdf:resource="http://purl.org/dc/dcmitype/StillImage" />
      </cc:Work>
    </rdf:RDF>
  </metadata>
  <defs
     id="defs7" />
  <g
     id="text2"
     style="font-size:130px"
     aria-label="d">
    <path
       id="path11"
       style="font-size:130px"
       d="M 65.533203,38.697266 V 0.23046875 H 77.212891 V 99 H 65.533203 V 88.335937 q -3.681641,6.347657 -9.331055,9.458008 -5.585937,3.046875 -13.457031,3.046875 -12.885742,0 -21.010742,-10.283203 -8.061523,-10.283203 -8.061523,-27.041015 0,-16.757813 8.061523,-27.041016 8.125,-10.283203 21.010742,-10.283203 7.871094,0 13.457031,3.110351 5.649414,3.046875 9.331055,9.394532 z M 25.733398,63.516602 q 0,12.885742 5.268555,20.249023 5.332031,7.299805 14.599609,7.299805 9.267579,0 14.59961,-7.299805 5.332031,-7.363281 5.332031,-20.249023 0,-12.885743 -5.332031,-20.185547 -5.332031,-7.363282 -14.59961,-7.363282 -9.267578,0 -14.599609,7.363282 -5.268555,7.299804 -5.268555,20.185547 z" />
  </g>
</svg>
