<?xml version="1.0" encoding="UTF-8" standalone="no"?>
<svg
   xmlns:dc="http://purl.org/dc/elements/1.1/"
   xmlns:cc="http://creativecommons.org/ns#"
   xmlns:rdf="http://www.w3.org/1999/02/22-rdf-syntax-ns#"
   xmlns:svg="http://www.w3.org/2000/svg"
   xmlns="http://www.w3.org/2000/svg"
   height="100"
   width="100"
   viewBox="0 0 100 100"
   y="0px"
   x="0px"
   id="Ebene_1"
   version="1.1">
  <metadata
     id="metadata9">
    <rdf:RDF>
      <cc:Work
         rdf:about="">
        <dc:format>image/svg+xml</dc:format>
        <dc:type
           rdf:resource="http://purl.org/dc/dcmitype/StillImage" />
      </cc:Work>
    </rdf:RDF>
  </metadata>
  <defs
     id="defs7" />
  <g
     id="text2"
     style="font-size:130px"
     aria-label="O">
    <path
       id="path11"
       style="font-size:130px"
       d="m 57.725586,12.925781 q -13.964844,0 -22.216797,10.410156 -8.188477,10.410157 -8.188477,28.374024 0,17.900391 8.188477,28.310547 8.251953,10.410156 22.216797,10.410156 13.964844,0 22.089844,-10.410156 8.188476,-10.410156 8.188476,-28.310547 0,-17.963867 -8.188476,-28.374024 -8.125,-10.410156 -22.089844,-10.410156 z m 0,-10.410156 q 19.931641,0 31.865234,13.393555 11.93359,13.330078 11.93359,35.800781 0,22.407226 -11.93359,35.800781 -11.933593,13.330078 -31.865234,13.330078 -19.995117,0 -31.992188,-13.330078 -11.933593,-13.330078 -11.933593,-35.800781 0,-22.470703 11.933593,-35.800781 Q 37.730469,2.515625 57.725586,2.515625 Z" />
  </g>
</svg>
