<?xml version="1.0" encoding="UTF-8" standalone="no"?>
<svg
   xmlns:dc="http://purl.org/dc/elements/1.1/"
   xmlns:cc="http://creativecommons.org/ns#"
   xmlns:rdf="http://www.w3.org/1999/02/22-rdf-syntax-ns#"
   xmlns:svg="http://www.w3.org/2000/svg"
   xmlns="http://www.w3.org/2000/svg"
   xmlns:sodipodi="http://sodipodi.sourceforge.net/DTD/sodipodi-0.dtd"
   xmlns:inkscape="http://www.inkscape.org/namespaces/inkscape"
   height="100"
   width="100"
   viewBox="0 0 100 100"
   y="0px"
   x="0px"
   id="Ebene_1"
   version="1.1"
   inkscape:version="0.91 r13725"
   sodipodi:docname="Q.svg">
  <sodipodi:namedview
     pagecolor="#ffffff"
     bordercolor="#666666"
     borderopacity="1"
     objecttolerance="10"
     gridtolerance="10"
     guidetolerance="10"
     inkscape:pageopacity="0"
     inkscape:pageshadow="2"
     inkscape:window-width="1115"
     inkscape:window-height="788"
     id="namedview7"
     showgrid="false"
     inkscape:zoom="2.36"
     inkscape:cx="50"
     inkscape:cy="50"
     inkscape:window-x="0"
     inkscape:window-y="0"
     inkscape:window-maximized="0"
     inkscape:current-layer="Ebene_1" />
  <metadata
     id="metadata9">
    <rdf:RDF>
      <cc:Work
         rdf:about="">
        <dc:format>image/svg+xml</dc:format>
        <dc:type
           rdf:resource="http://purl.org/dc/dcmitype/StillImage" />
      </cc:Work>
    </rdf:RDF>
  </metadata>
  <defs
     id="defs7" />
  <g
     id="text2"
     style="font-size:130px;stroke:#000000;stroke-opacity:1"
     aria-label="Q"
     transform="matrix(0.83891014,0,0,0.83891014,1.6266733,0.38959965)">
    <path
       id="path11"
       style="font-size:130px;stroke:#000000;stroke-opacity:1"
       d="m 57.725586,12.925781 q -13.964844,0 -22.216797,10.410156 -8.188477,10.410157 -8.188477,28.374024 0,17.900391 8.188477,28.310547 8.251953,10.410156 22.216797,10.410156 13.964844,0 22.089844,-10.410156 8.188476,-10.410156 8.188476,-28.310547 0,-17.963867 -8.188476,-28.374024 -8.125,-10.410156 -22.089844,-10.410156 z m 17.963867,84.360352 16.884766,18.471677 -15.488282,0 -14.02832,-15.1709 q -2.094726,0.12696 -3.237305,0.19043 -1.079101,0.0635 -2.094726,0.0635 -19.995117,0 -31.992188,-13.330078 -11.933593,-13.393555 -11.933593,-35.800781 0,-22.470703 11.933593,-35.800781 11.997071,-13.393555 31.992188,-13.393555 19.931641,0 31.865234,13.393555 11.93359,13.330078 11.93359,35.800781 0,16.503906 -6.665035,28.24707 -6.601563,11.743164 -19.169922,17.329102 z"
       inkscape:connector-curvature="0" />
  </g>
</svg>
