<?xml version="1.0" encoding="UTF-8" standalone="no"?>
<svg
   xmlns:dc="http://purl.org/dc/elements/1.1/"
   xmlns:cc="http://creativecommons.org/ns#"
   xmlns:rdf="http://www.w3.org/1999/02/22-rdf-syntax-ns#"
   xmlns:svg="http://www.w3.org/2000/svg"
   xmlns="http://www.w3.org/2000/svg"
   height="100"
   width="100"
   viewBox="0 0 100 100"
   y="0px"
   x="0px"
   id="Ebene_1"
   version="1.1">
  <metadata
     id="metadata9">
    <rdf:RDF>
      <cc:Work
         rdf:about="">
        <dc:format>image/svg+xml</dc:format>
        <dc:type
           rdf:resource="http://purl.org/dc/dcmitype/StillImage" />
      </cc:Work>
    </rdf:RDF>
  </metadata>
  <defs
     id="defs7" />
  <g
     id="text2"
     style="font-size:130px"
     aria-label="s">
    <path
       id="path11"
       style="font-size:130px"
       d="M 64.073242,30.000977 V 41.045898 Q 59.12207,38.506836 53.790039,37.237305 48.458008,35.967773 42.745117,35.967773 q -8.696289,0 -13.076172,2.666016 -4.316406,2.666016 -4.316406,7.998047 0,4.0625 3.110352,6.411133 3.110351,2.285156 12.504882,4.379883 l 3.999024,0.888671 q 12.441406,2.666016 17.646484,7.553711 5.268555,4.824219 5.268555,13.520508 0,9.902344 -7.871094,15.678711 -7.807617,5.776367 -21.518555,5.776367 -5.71289,0 -11.933593,-1.142578 -6.157227,-1.079101 -13.012696,-3.300781 V 84.336914 q 6.47461,3.364258 12.758789,5.078125 6.28418,1.650391 12.441407,1.650391 8.251953,0 12.695312,-2.792969 4.44336,-2.856445 4.44336,-7.998047 0,-4.760742 -3.237305,-7.299805 -3.173828,-2.539062 -14.02832,-4.887695 l -4.0625,-0.952148 Q 23.702148,64.849609 18.87793,60.152344 14.053711,55.391602 14.053711,47.139648 q 0,-10.029296 7.109375,-15.488281 7.109375,-5.458984 20.185547,-5.458984 6.474609,0 12.1875,0.952148 5.71289,0.952149 10.537109,2.856446 z" />
  </g>
</svg>
