<?xml version="1.0" encoding="UTF-8" standalone="no"?>
<svg
   xmlns:dc="http://purl.org/dc/elements/1.1/"
   xmlns:cc="http://creativecommons.org/ns#"
   xmlns:rdf="http://www.w3.org/1999/02/22-rdf-syntax-ns#"
   xmlns:svg="http://www.w3.org/2000/svg"
   xmlns="http://www.w3.org/2000/svg"
   xmlns:sodipodi="http://sodipodi.sourceforge.net/DTD/sodipodi-0.dtd"
   xmlns:inkscape="http://www.inkscape.org/namespaces/inkscape"
   height="100"
   width="100"
   viewBox="0 0 100 100"
   y="0px"
   x="0px"
   id="Ebene_1"
   version="1.1"
   inkscape:version="0.91 r13725"
   sodipodi:docname="S.svg">
  <sodipodi:namedview
     pagecolor="#ffffff"
     bordercolor="#666666"
     borderopacity="1"
     objecttolerance="10"
     gridtolerance="10"
     guidetolerance="10"
     inkscape:pageopacity="0"
     inkscape:pageshadow="2"
     inkscape:window-width="1215"
     inkscape:window-height="770"
     id="namedview7"
     showgrid="false"
     inkscape:zoom="2.36"
     inkscape:cx="49.576271"
     inkscape:cy="50"
     inkscape:window-x="0"
     inkscape:window-y="0"
     inkscape:window-maximized="0"
     inkscape:current-layer="Ebene_1" />
  <metadata
     id="metadata9">
    <rdf:RDF>
      <cc:Work
         rdf:about="">
        <dc:format>image/svg+xml</dc:format>
        <dc:type
           rdf:resource="http://purl.org/dc/dcmitype/StillImage" />
      </cc:Work>
    </rdf:RDF>
  </metadata>
  <defs
     id="defs7" />
  <g
     id="text2"
     style="font-size:130px;fill:#000000;fill-opacity:1;stroke:#000000;stroke-opacity:1"
     aria-label="S"
     transform="translate(0,-1.6782225)">
    <path
       id="path11"
       style="font-size:130px;fill:#000000;fill-opacity:1;stroke:#000000;stroke-opacity:1"
       d="m 76.070312,7.3398437 0,12.5048833 q -7.299804,-3.491211 -13.774414,-5.205079 -6.474609,-1.713867 -12.504882,-1.713867 -10.473633,0 -16.186524,4.0625 -5.649414,4.0625 -5.649414,11.552735 0,6.284179 3.745117,9.521484 3.808594,3.173828 14.345703,5.141602 l 7.744141,1.586914 q 14.345703,2.729492 21.137695,9.648437 6.855469,6.855469 6.855469,18.408203 0,13.774414 -9.267578,20.883789 -9.204102,7.109375 -27.041016,7.109375 -6.728515,0 -14.345703,-1.523437 -7.553711,-1.523438 -15.678711,-4.506836 l 0,-13.203125 q 7.807617,4.379883 15.297852,6.601562 7.490234,2.22168 14.726562,2.22168 10.981446,0 16.948243,-4.316406 5.966796,-4.316406 5.966796,-12.314453 0,-6.982422 -4.316406,-10.917969 -4.25293,-3.935547 -14.02832,-5.90332 l -7.807617,-1.523438 q -14.345703,-2.856445 -20.756836,-8.950195 -6.411133,-6.09375 -6.411133,-16.948242 0,-12.56836 8.823242,-19.8046879 8.886719,-7.2363281 24.438477,-7.2363281 6.665039,0 13.583984,1.2060547 6.918945,1.2060547 14.155273,3.618164 z"
       inkscape:connector-curvature="0" />
  </g>
</svg>
