<?xml version="1.0" encoding="UTF-8" standalone="no"?>
<!-- Created with Inkscape (http://www.inkscape.org/) -->

<svg
   xmlns:dc="http://purl.org/dc/elements/1.1/"
   xmlns:cc="http://creativecommons.org/ns#"
   xmlns:rdf="http://www.w3.org/1999/02/22-rdf-syntax-ns#"
   xmlns:svg="http://www.w3.org/2000/svg"
   xmlns="http://www.w3.org/2000/svg"
   xmlns:sodipodi="http://sodipodi.sourceforge.net/DTD/sodipodi-0.dtd"
   xmlns:inkscape="http://www.inkscape.org/namespaces/inkscape"
   width="100"
   height="100"
   id="svg2"
   version="1.1"
   inkscape:version="0.48.4 r9939"
   sodipodi:docname="letters.svg">
  <defs
     id="defs4">
    <inkscape:perspective
       sodipodi:type="inkscape:persp3d"
       inkscape:vp_x="0 : 50 : 1"
       inkscape:vp_y="0 : 1000 : 0"
       inkscape:vp_z="100 : 50 : 1"
       inkscape:persp3d-origin="50 : 33.333333 : 1"
       id="perspective3006" />
  </defs>
  <sodipodi:namedview
     id="base"
     pagecolor="#ffffff"
     bordercolor="#666666"
     borderopacity="1.0"
     inkscape:pageopacity="0.0"
     inkscape:pageshadow="2"
     inkscape:zoom="2.8284271"
     inkscape:cx="-157.09576"
     inkscape:cy="94.704146"
     inkscape:document-units="px"
     inkscape:current-layer="svg2"
     showgrid="false"
     inkscape:window-width="1920"
     inkscape:window-height="1018"
     inkscape:window-x="1592"
     inkscape:window-y="206"
     inkscape:window-maximized="1" />
  <metadata
     id="metadata7">
    <rdf:RDF>
      <cc:Work
         rdf:about="">
        <dc:format>image/svg+xml</dc:format>
        <dc:type
           rdf:resource="http://purl.org/dc/dcmitype/StillImage" />
        <dc:title />
      </cc:Work>
    </rdf:RDF>
  </metadata>
  <text
     xml:space="preserve"
     style="font-size:99.66283417px;font-style:normal;font-variant:normal;font-weight:200;font-stretch:normal;line-height:125%;letter-spacing:0px;word-spacing:0px;fill:#ff0000;fill-opacity:1;stroke:none;font-family:Palatino Sans LT Pro UltLight;-inkscape-font-specification:Palatino Sans LT Pro UltLight Ultra-Light"
     x="457.04828"
     y="71.821945"
     id="text3782-4-9-9"
     sodipodi:linespacing="125%"
     transform="scale(0.9999981,1.0000019)"><tspan
       sodipodi:role="line"
       id="tspan3784-8-4-4"
       x="457.04828"
       y="71.821945"
       style="font-style:normal;font-variant:normal;font-weight:200;font-stretch:normal;fill:#ff0000;font-family:Palatino Sans LT Pro UltLight;-inkscape-font-specification:Palatino Sans LT Pro UltLight Ultra-Light">D</tspan></text>
  <g
     id="g4285"
     transform="translate(-736.54089,0)">
    <path
       inkscape:connector-curvature="0"
       id="path3008"
       d="m -2778.7766,99.9375 6818.5126,0"
       style="opacity:0.69360268;fill:none;stroke:#000000;stroke-width:0.1;stroke-linecap:butt;stroke-linejoin:miter;stroke-miterlimit:4;stroke-opacity:1;stroke-dasharray:none" />
    <path
       inkscape:connector-curvature="0"
       id="path3008-1"
       d="m -2778.7376,71.826857 6818.5125,0"
       style="opacity:0.69360268;fill:none;stroke:#000000;stroke-width:0.1;stroke-linecap:butt;stroke-linejoin:miter;stroke-miterlimit:4;stroke-opacity:1;stroke-dasharray:none" />
    <path
       inkscape:connector-curvature="0"
       id="path3008-7"
       d="m -2778.7437,26.17484 6818.5126,0"
       style="opacity:0.69360268;fill:none;stroke:#000000;stroke-width:0.1;stroke-linecap:butt;stroke-linejoin:miter;stroke-miterlimit:4;stroke-opacity:1;stroke-dasharray:none" />
    <path
       inkscape:connector-curvature="0"
       id="path3008-7-4"
       d="m -2778.2008,3.9339658 6818.5121,0"
       style="opacity:0.69360268;fill:none;stroke:#000000;stroke-width:0.1;stroke-linecap:butt;stroke-linejoin:miter;stroke-miterlimit:4;stroke-opacity:1;stroke-dasharray:none" />
    <path
       inkscape:connector-curvature="0"
       id="path3008-7-4-0"
       d="m -2777.0932,0.06260863 6818.512,0"
       style="opacity:0.69360268;fill:none;stroke:#000000;stroke-width:0.1;stroke-linecap:butt;stroke-linejoin:miter;stroke-miterlimit:4;stroke-opacity:1;stroke-dasharray:none" />
  </g>
  <g
     inkscape:label="Ebene 1"
     inkscape:groupmode="layer"
     id="layer1"
     transform="translate(0,-952.36218)" />
  <text
     xml:space="preserve"
     style="font-size:99.66283417px;font-style:normal;font-variant:normal;font-weight:200;font-stretch:normal;line-height:125%;letter-spacing:0px;word-spacing:0px;fill:#ff0000;fill-opacity:1;stroke:none;font-family:Palatino Sans LT Pro UltLight;-inkscape-font-specification:Palatino Sans LT Pro UltLight Ultra-Light"
     x="1032.9821"
     y="71.821945"
     id="text3782-4-9"
     sodipodi:linespacing="125%"
     transform="scale(0.9999981,1.0000019)"><tspan
       sodipodi:role="line"
       id="tspan3784-8-4"
       x="1032.9821"
       y="71.821945"
       style="font-style:normal;font-variant:normal;font-weight:200;font-stretch:normal;fill:#ff0000;font-family:Palatino Sans LT Pro UltLight;-inkscape-font-specification:Palatino Sans LT Pro UltLight Ultra-Light">Hamburgefonstivus04</tspan></text>
  <path
     style="fill:none;stroke:#000000;stroke-width:1;stroke-linecap:butt;stroke-linejoin:miter;stroke-miterlimit:4;stroke-opacity:1;stroke-dasharray:none"
     d="m -1177.0768,71.75 -0.1174,-66.8977473 c 17.7613,-1.3066555 32.9161,-2.1580526 31.3084,18.5014673 -0.8564,11.005321 -8.1925,17.606297 -23.0272,17.45878"
     id="path3862"
     inkscape:connector-curvature="0"
     sodipodi:nodetypes="ccsc" />
  <path
     style="fill:none;stroke:#000000;stroke-width:1;stroke-linecap:butt;stroke-linejoin:miter;stroke-miterlimit:4;stroke-opacity:1;stroke-dasharray:none"
     d="m -1912.3429,70.801741 -0.094,-65.6859292 c 6.7577,-1.2681211 30.0668,-3.5910012 31.0164,11.0780022 1.3024,20.120103 -18.2911,19.601395 -30.9319,19.603836 12.2051,0 15.8413,-0.237038 22.8237,2.416812 6.0098,2.284144 10.7684,6.53236 10.2802,14.80007 -1.1217,18.993411 -17.5713,19.425286 -33.0206,17.532672"
     id="path3780-82"
     inkscape:connector-curvature="0"
     sodipodi:nodetypes="ccscssc" />
  <path
     style="fill:none;stroke:#000000;stroke-width:1;stroke-linecap:butt;stroke-linejoin:miter;stroke-miterlimit:4;stroke-opacity:1;stroke-dasharray:none"
     d="m -1984.7501,71.538952 31.5547,-68.0590274 27.8423,68.2358044"
     id="path3887"
     inkscape:connector-curvature="0"
     sodipodi:nodetypes="ccc" />
  <path
     style="fill:none;stroke:#000000;stroke-width:1;stroke-linecap:butt;stroke-linejoin:miter;stroke-miterlimit:4;stroke-opacity:1;stroke-dasharray:none"
     d="m -1968.354,36.36039 28.5494,0"
     id="path3889"
     inkscape:connector-curvature="0" />
  <path
     style="fill:none;stroke:#000000;stroke-width:1;stroke-linecap:butt;stroke-linejoin:miter;stroke-miterlimit:4;stroke-opacity:1;stroke-dasharray:none"
     d="m -2189.4879,66.625 c -17.1695,4.128597 -17.6544,22.35883 -9.25,28.4375 7.2213,5.22301 17.8087,4.95963 24.8493,2.154853 7.4951,-2.985837 11.8318,-9.719424 10.7243,-17.103867 -2.8152,-18.771589 -33.5007,-7.352298 -32.6986,-19.988486 0.1612,-2.538807 3.0171,-5.092352 5.7083,-4.945938 7.6209,0.414623 15.922,-1.272281 18.4167,-10.804062 2.512,-9.598145 -2.8504,-17.290716 -12.9375,-17.5625 -7.5238,-0.202718 -12.3577,2.402663 -14.8825,7.405893 -4.0887,8.102333 -1.7595,18.642662 8.945,21.031607"
     id="path3891"
     inkscape:connector-curvature="0"
     sodipodi:nodetypes="cssssssssc" />
  <path
     style="fill:none;stroke:#000000;stroke-width:1;stroke-linecap:butt;stroke-linejoin:miter;stroke-miterlimit:4;stroke-opacity:1;stroke-dasharray:none"
     d="m -2174.9319,30.261594 17.4126,-0.176777"
     id="path3893"
     inkscape:connector-curvature="0" />
  <path
     style="fill:none;stroke:#000000;stroke-width:1;stroke-linecap:butt;stroke-linejoin:miter;stroke-miterlimit:4;stroke-opacity:1;stroke-dasharray:none"
     d="m -1813.5674,10.375 c -9.5405,-6.5981567 -20.8071,-6.7552816 -30.8704,-4.3608001 -11.1541,2.6540323 -17.7038,10.3447181 -20.7221,20.2132671 -3.0623,10.012214 -2.0032,24.305201 3.7971,33.240495 8.7895,13.540109 32.6645,15.168212 47.4204,6.657038"
     id="path3895"
     inkscape:connector-curvature="0"
     sodipodi:nodetypes="csssc" />
  <path
     style="fill:none;stroke:#000000;stroke-width:1;stroke-linecap:butt;stroke-linejoin:miter;stroke-miterlimit:4;stroke-opacity:1;stroke-dasharray:none"
     d="m -1800.2021,71.362175 0.1768,-66.5564251 c 25.1655,-0.9094514 39.3134,-1.4152262 48.4605,10.1531441 8.4995,10.749195 7.8032,27.302372 1.8379,38.998803 -10.3717,20.336113 -25.1087,17.209338 -50.4752,17.404478 z"
     id="path3897"
     inkscape:connector-curvature="0"
     sodipodi:nodetypes="ccssc" />
  <path
     style="fill:none;stroke:#000000;stroke-width:1;stroke-linecap:butt;stroke-linejoin:miter;stroke-miterlimit:4;stroke-opacity:1;stroke-dasharray:none"
     d="m -1704.6072,4.7173615 -29.1681,-0.066291 0.1768,66.4459395 35.5321,-0.265165"
     id="path3899"
     inkscape:connector-curvature="0"
     sodipodi:nodetypes="cccc" />
  <path
     style="fill:none;stroke:#000000;stroke-width:1;stroke-linecap:butt;stroke-linejoin:miter;stroke-miterlimit:4;stroke-opacity:1;stroke-dasharray:none"
     d="m -1733.8637,35.83006 27.5772,-0.441942"
     id="path3901"
     inkscape:connector-curvature="0" />
  <path
     style="fill:none;stroke:#000000;stroke-width:1;stroke-linecap:butt;stroke-linejoin:miter;stroke-miterlimit:4;stroke-opacity:1;stroke-dasharray:none"
     d="m -1693.8174,71.734375 0.062,-67.2343748 29.3126,0.375"
     id="path3903"
     inkscape:connector-curvature="0"
     sodipodi:nodetypes="ccc" />
  <path
     style="fill:none;stroke:#000000;stroke-width:1;stroke-linecap:butt;stroke-linejoin:miter;stroke-miterlimit:4;stroke-opacity:1;stroke-dasharray:none"
     d="m -1693.6869,35.741671 27.4005,-0.110487"
     id="path3905"
     inkscape:connector-curvature="0"
     sodipodi:nodetypes="cc" />
  <path
     style="fill:none;stroke:#000000;stroke-width:1;stroke-linecap:butt;stroke-linejoin:miter;stroke-miterlimit:4;stroke-opacity:1;stroke-dasharray:none"
     d="m -1406.7642,71.660908 0.2887,-67.6575913 c 11.0904,22.5910423 22.0212,45.3944923 32.1737,68.4544683 l 33.9045,-68.3012605 0.1885,67.6929445"
     id="path3000"
     inkscape:connector-curvature="0"
     sodipodi:nodetypes="ccccc" />
  <path
     style="fill:none;stroke:#000000;stroke-width:1;stroke-linecap:butt;stroke-linejoin:miter;stroke-miterlimit:4;stroke-opacity:1;stroke-dasharray:none"
     d="m -374.56203,24.587505 c 5.906,22.177374 -28.631,57.464866 -51.9964,45.127863 -11.3698,-6.003307 -16.7442,-24.810896 5.819,-41.39507 5.0134,-3.684954 10.0831,-7.81862 12.1329,-12.476752 2.2215,-5.048242 1.0805,-11.3040749 -5.1642,-11.6341951 -6.8187,-0.3604612 -10.5552,8.8030591 -7.3153,15.7123391 5.2284,11.149905 33.8455,41.366426 46.1877,54.366994"
     id="path3096-4"
     inkscape:connector-curvature="0"
     sodipodi:nodetypes="csssssc" />
  <path
     style="fill:none;stroke:#000000;stroke-width:1;stroke-linecap:butt;stroke-linejoin:miter;stroke-miterlimit:4;stroke-opacity:1;stroke-dasharray:none"
     d="m -2765.8168,3.5839093 c 15.2956,0.4662637 18.1755,12.2935067 18.4907,35.8079657 0.2233,16.663144 -3.4621,32.76261 -18.9997,32.654534 -16.6916,-0.1161 -18.1933,-19.95914 -18.3415,-32.083733 -0.2732,-22.371472 5.1481,-36.7964688 18.8505,-36.3787667 z"
     id="path3077"
     inkscape:connector-curvature="0"
     sodipodi:nodetypes="sssss" />
  <path
     style="fill:none;stroke:#000000;stroke-width:1;stroke-linecap:butt;stroke-linejoin:miter;stroke-miterlimit:4;stroke-opacity:1;stroke-dasharray:none"
     d="m -2743.1327,11.211027 c 7.5599,-2.1825564 14.9599,-4.471683 22.0213,-6.9865675 l -0.1396,67.5190935"
     id="path3002"
     inkscape:connector-curvature="0"
     sodipodi:nodetypes="ccc" />
  <path
     style="fill:none;stroke:#000000;stroke-width:1;stroke-linecap:butt;stroke-linejoin:miter;stroke-miterlimit:4;stroke-opacity:1;stroke-dasharray:none"
     d="m -2656.6997,71.17382 -41.178,-0.09441 c 10.5429,-10.839568 27.2613,-27.70972 31.9782,-40.119704 3.5407,-9.315344 3.1135,-19.834679 -4.5676,-24.8020713 -9.7922,-6.33256291 -22.4159,0.5731774 -25.2901,3.8814353"
     id="path3075"
     inkscape:connector-curvature="0"
     sodipodi:nodetypes="ccssc" />
  <path
     style="fill:none;stroke:#000000;stroke-width:1;stroke-linecap:butt;stroke-linejoin:miter;stroke-miterlimit:4;stroke-opacity:1;stroke-dasharray:none"
     d="m -2647.4625,7.2583084 c 33.6445,-15.1206193 38.0828,21.0519766 8.3609,24.3984866 30.0351,-4.852876 36.1636,40.169969 -11.4599,40.008645"
     id="path3079-9"
     inkscape:connector-curvature="0"
     sodipodi:nodetypes="ccc" />
  <path
     style="fill:none;stroke:#000000;stroke-width:1;stroke-linecap:butt;stroke-linejoin:miter;stroke-miterlimit:4;stroke-opacity:1;stroke-dasharray:none"
     d="m -2565.7803,49.320045 -43.3275,0.08839 c 8.7781,-13.723483 23.9106,-37.893858 31.6989,-46.6202204 -0.6704,22.8939114 -1.3394,45.7878234 -0.8594,68.6817354"
     id="path3004"
     inkscape:connector-curvature="0"
     sodipodi:nodetypes="cccc" />
  <path
     style="fill:none;stroke:#000000;stroke-width:1;stroke-linecap:butt;stroke-linejoin:miter;stroke-miterlimit:4;stroke-opacity:1;stroke-dasharray:none"
     d="m -2527.2315,3.833478 -28.6379,0.751301 -1.0606,30.49398 c 13.9822,-8.689709 25.8857,-2.429955 27.9307,8.706252 3.1691,17.257597 -11.3688,31.915737 -35.267,26.074562"
     id="path3907"
     inkscape:connector-curvature="0"
     sodipodi:nodetypes="cccsc" />
  <path
     style="fill:none;stroke:#000000;stroke-width:1;stroke-linecap:butt;stroke-linejoin:miter;stroke-miterlimit:4;stroke-opacity:1;stroke-dasharray:none"
     d="m -2482.561,3.3915362 c -20.8781,-0.6295605 -31.5394,19.0817998 -32.2618,40.3934748 -0.366,10.799252 0.4937,25.371981 13.9654,27.488776 16.352,2.569388 24.4559,-9.763252 22.539,-24.57196 -2.534,-19.576122 -32.9309,-18.674128 -36.2392,3.358757"
     id="path3909"
     inkscape:connector-curvature="0"
     sodipodi:nodetypes="csssc" />
  <path
     style="fill:none;stroke:#000000;stroke-width:1;stroke-linecap:butt;stroke-linejoin:miter;stroke-miterlimit:4;stroke-opacity:1;stroke-dasharray:none"
     d="m -2470.5402,3.7513713 c 10.784,1.537598 22.9214,1.555592 35.8749,0.4249368 -14.0202,27.7980319 -27.1699,49.4124149 -30.7073,67.9876439"
     id="path3911"
     inkscape:connector-curvature="0"
     sodipodi:nodetypes="ccc" />
  <path
     style="fill:none;stroke:#000000;stroke-width:1;stroke-linecap:butt;stroke-linejoin:miter;stroke-miterlimit:4;stroke-opacity:1;stroke-dasharray:none"
     d="m -2417.242,35.388118 c 7.8079,-0.580837 17.5354,-7.395735 15.7331,-19.091883 -2.1526,-13.9689725 -21.4634,-16.18869732 -28.903,-5.214912 -5.698,8.404862 -1.5631,23.431452 12.2836,24.222145 12.1362,0.693018 18.0863,6.111335 19.0059,13.96162 1.4437,12.324701 -5.5505,22.666419 -18.8267,22.097088 -8.6603,-0.371384 -17.5785,-5.018277 -17.4125,-18.73833 0.1397,-11.552949 8.9648,-16.554696 18.1196,-17.235728 z"
     id="path3913"
     inkscape:connector-curvature="0"
     sodipodi:nodetypes="ssssssss" />
  <path
     style="fill:none;stroke:#000000;stroke-width:1;stroke-linecap:butt;stroke-linejoin:miter;stroke-miterlimit:4;stroke-opacity:1;stroke-dasharray:none"
     d="m -2385.252,71.75 c 6.4691,0.878121 34.7622,-3.512127 32.75,-47.375 -0.4805,-10.473518 -3.0405,-16.9797202 -10.9126,-19.5427047 -28.8854,-9.4043947 -34.1053,32.6214387 -13.5874,36.7927047 18.2114,3.702356 24.7763,-12.257743 24.4375,-18.25"
     id="path3915"
     inkscape:connector-curvature="0"
     sodipodi:nodetypes="csssc" />
  <path
     style="fill:none;stroke:#000000;stroke-width:1;stroke-linecap:butt;stroke-linejoin:miter;stroke-miterlimit:4;stroke-opacity:1;stroke-dasharray:none"
     d="m -1323.0813,71.875 0.1875,-67.2499997 50.3125,66.5624997 -0.1875,-67.3749997"
     id="path3917"
     inkscape:connector-curvature="0"
     sodipodi:nodetypes="cccc" />
  <path
     style="opacity:0.69360268;fill:none;stroke:#000000;stroke-width:1;stroke-miterlimit:4;stroke-opacity:1;stroke-dasharray:none"
     d="m -1193.8813,38.570099 c 0.088,19.626448 -13.3649,34.001252 -32.6153,33.852738 -21.0124,-0.162107 -31.2011,-13.519183 -31.3779,-32.880466 -0.1816,-19.890785 10.937,-35.7007735 31.6431,-36.0624484 20.7061,-0.3616749 32.2454,11.8358414 32.3501,35.0901764 z"
     id="path3937"
     inkscape:connector-curvature="0"
     sodipodi:nodetypes="sssss" />
  <path
     style="fill:none;stroke:#000000;stroke-width:1;stroke-linecap:butt;stroke-linejoin:miter;stroke-miterlimit:4;stroke-opacity:1;stroke-dasharray:none"
     d="m -686.77745,4.098643 c 16.23914,23.05907 32.78804,45.498607 49.49747,67.617086"
     id="path3940"
     inkscape:connector-curvature="0"
     sodipodi:nodetypes="cc" />
  <path
     style="fill:none;stroke:#000000;stroke-width:1;stroke-linecap:butt;stroke-linejoin:miter;stroke-miterlimit:4;stroke-opacity:1;stroke-dasharray:none"
     d="m -639.66646,4.098643 c -16.23914,23.05907 -32.78804,45.498607 -49.49748,67.617086"
     id="path3940-4"
     inkscape:connector-curvature="0"
     sodipodi:nodetypes="cc" />
  <path
     style="fill:none;stroke:#000000;stroke-width:1;stroke-linecap:butt;stroke-linejoin:miter;stroke-miterlimit:4;stroke-opacity:1;stroke-dasharray:none"
     d="m -577.05821,4.8750003 40.15625,-0.125 C -552.22576,27.478279 -570.67119,52.147437 -584.68321,71.375 l 51.375,-0.625"
     id="path3960"
     inkscape:connector-curvature="0"
     sodipodi:nodetypes="cccc" />
  <path
     style="fill:none;stroke:#000000;stroke-width:1;stroke-linecap:butt;stroke-linejoin:miter;stroke-miterlimit:4;stroke-opacity:1;stroke-dasharray:none"
     d="m -1603.7182,9.6671089 c -9.3341,-7.5980342 -37.2512,-9.68248259 -47.7506,7.6158541 -7.0083,11.546528 -8.5508,29.380109 -0.6574,42.054957 7.8028,12.529315 28.2949,16.157689 46.5519,8.753887 l 0.3535,-25.544233"
     id="path3962"
     inkscape:connector-curvature="0"
     sodipodi:nodetypes="csscc" />
  <path
     style="fill:none;stroke:#000000;stroke-width:1;stroke-linecap:butt;stroke-linejoin:miter;stroke-miterlimit:4;stroke-opacity:1;stroke-dasharray:none"
     d="m -788.42405,4.1870314 c 6.66332,22.6470916 13.58517,45.0356546 20.57932,67.3519206 L -741.7992,4.1870314 c 7.28817,22.2150096 13.32131,45.2137806 20.63822,67.3519206 8.45168,-21.756423 16.52806,-44.638713 24.66081,-67.3519206"
     id="path3964"
     inkscape:connector-curvature="0"
     sodipodi:nodetypes="ccccc" />
  <path
     style="fill:none;stroke:#000000;stroke-width:1;stroke-linecap:butt;stroke-linejoin:miter;stroke-miterlimit:4;stroke-opacity:1;stroke-dasharray:none"
     d="m -851.42405,4.187031 c 9.22666,22.584592 18.41933,45.473155 27.64486,67.789421 10.69187,-22.246226 20.67345,-45.214066 30.54249,-67.789421"
     id="path3964-5"
     inkscape:connector-curvature="0"
     sodipodi:nodetypes="ccc" />
  <path
     style="fill:none;stroke:#000000;stroke-width:1;stroke-linecap:butt;stroke-linejoin:miter;stroke-miterlimit:4;stroke-opacity:1;stroke-dasharray:none"
     d="m -632.1895,4.0102547 23.33452,36.0624453 0,31.819805"
     id="path3991"
     inkscape:connector-curvature="0"
     sodipodi:nodetypes="ccc" />
  <path
     style="fill:none;stroke:#000000;stroke-width:1;stroke-linecap:butt;stroke-linejoin:miter;stroke-miterlimit:4;stroke-opacity:1;stroke-dasharray:none"
     d="M -585.52046,4.2754197 C -593.16456,16.296235 -600.5538,28.31705 -608.85498,40.337865"
     id="path3993"
     inkscape:connector-curvature="0"
     sodipodi:nodetypes="cc" />
  <path
     style="fill:none;stroke:#000000;stroke-width:1;stroke-linecap:butt;stroke-linejoin:miter;stroke-miterlimit:4;stroke-opacity:1;stroke-dasharray:none"
     d="M -1593.1191,4.0000003 -1593.2441,71.75"
     id="path3995"
     inkscape:connector-curvature="0" />
  <path
     style="fill:none;stroke:#000000;stroke-width:1;stroke-linecap:butt;stroke-linejoin:miter;stroke-miterlimit:4;stroke-opacity:1;stroke-dasharray:none"
     d="m -1593.3691,36.3125 46.6251,0.125"
     id="path3997"
     inkscape:connector-curvature="0"
     sodipodi:nodetypes="cc" />
  <path
     style="fill:none;stroke:#000000;stroke-width:1;stroke-linecap:butt;stroke-linejoin:miter;stroke-miterlimit:4;stroke-opacity:1;stroke-dasharray:none"
     d="M -1546.619,4.1250003 -1546.494,71.875"
     id="path3999"
     inkscape:connector-curvature="0" />
  <path
     style="fill:none;stroke:#000000;stroke-width:1;stroke-linecap:butt;stroke-linejoin:miter;stroke-miterlimit:4;stroke-opacity:1;stroke-dasharray:none"
     d="m -1510.889,4.1250003 -0.039,52.6089447 c -0.01,11.380719 -1.5785,16.909418 -5.3193,20.969013 -3.2084,3.481815 -7.7314,4.823498 -10.6418,3.984542"
     id="path4001"
     inkscape:connector-curvature="0"
     sodipodi:nodetypes="cssc" />
  <path
     style="fill:none;stroke:#000000;stroke-width:1;stroke-linecap:butt;stroke-linejoin:miter;stroke-miterlimit:4;stroke-opacity:1;stroke-dasharray:none"
     d="m -1532.7628,3.9370313 0,67.8778087"
     id="path4003"
     inkscape:connector-curvature="0"
     sodipodi:nodetypes="cc" />
  <path
     style="fill:none;stroke:#000000;stroke-width:1;stroke-linecap:butt;stroke-linejoin:miter;stroke-miterlimit:4;stroke-opacity:1;stroke-dasharray:none"
     d="m -1496.6561,3.937031 0,67.877809"
     id="path4003-1"
     inkscape:connector-curvature="0"
     sodipodi:nodetypes="cc" />
  <path
     style="fill:none;stroke:#000000;stroke-width:1;stroke-linecap:butt;stroke-linejoin:miter;stroke-miterlimit:4;stroke-opacity:1;stroke-dasharray:none"
     d="m -1461.1241,4.202196 -35.2669,33.395631 37.6533,34.217013"
     id="path4003-1-7"
     inkscape:connector-curvature="0"
     sodipodi:nodetypes="ccc" />
  <path
     style="fill:none;stroke:#000000;stroke-width:1;stroke-linecap:butt;stroke-linejoin:miter;stroke-miterlimit:4;stroke-opacity:1;stroke-dasharray:none"
     d="m -1449.2154,4.0102547 c -0.062,22.4764203 0.1776,44.9528403 -0.2541,67.4292603 l 31.4552,-0.696058"
     id="path4055"
     inkscape:connector-curvature="0"
     sodipodi:nodetypes="ccc" />
  <path
     style="opacity:0.69360268;fill:none;stroke:#000000;stroke-width:1;stroke-miterlimit:4;stroke-opacity:1;stroke-dasharray:none"
     d="m -1105.6148,72.421895 c -20.9399,-0.206449 -31.0942,-13.551197 -31.2706,-32.879524 -0.1816,-19.890785 10.9369,-35.7007731 31.643,-36.062448 20.7061,-0.3616749 31.7454,11.585841 31.8501,34.840176 0.088,19.626448 -13.2288,34.245728 -32.4739,34.099505 22.0067,4.128161 28.8524,18.001139 47.4665,9.604795"
     id="path3937-5"
     inkscape:connector-curvature="0"
     sodipodi:nodetypes="ccsscc" />
  <path
     style="fill:none;stroke:#000000;stroke-width:1;stroke-linecap:butt;stroke-linejoin:miter;stroke-miterlimit:4;stroke-opacity:1;stroke-dasharray:none"
     d="m -1060.8713,71.75 -0.1174,-66.8977473 c 17.1426,-2.0137623 29.7342,-0.036732 28.5684,16.5569233 -0.7736,11.011452 -14.5565,14.77787 -22.8504,15.072295 9.6506,10.855798 24.3649,24.048107 36.6583,36.029753"
     id="path3862-7"
     inkscape:connector-curvature="0"
     sodipodi:nodetypes="ccscc" />
  <path
     style="fill:none;stroke:#000000;stroke-width:1;stroke-linecap:butt;stroke-linejoin:miter;stroke-miterlimit:4;stroke-opacity:1;stroke-dasharray:none"
     d="m -973.58903,9.2251672 c -8.89589,-8.6950519 -24.38988,-6.6852327 -29.16817,1.5909908 -5.2127,9.028741 -2.8629,20.635913 12.77213,25.279067 9.95347,2.955888 18.53413,5.978936 17.27992,19.533824 -1.2789,13.821726 -19.43386,22.219425 -36.15085,12.816311"
     id="path4111"
     inkscape:connector-curvature="0"
     sodipodi:nodetypes="csssc" />
  <text
     xml:space="preserve"
     style="font-size:99.66283417px;font-style:normal;font-variant:normal;font-weight:normal;font-stretch:normal;line-height:125%;letter-spacing:0px;word-spacing:0px;fill:#ff0000;fill-opacity:1;stroke:none;font-family:Palatino Sans LT Pro;-inkscape-font-specification:Palatino Sans LT Pro"
     x="926.88538"
     y="71.821945"
     id="text3782-4-9-9-6"
     sodipodi:linespacing="125%"
     transform="scale(0.9999981,1.0000019)"><tspan
       sodipodi:role="line"
       id="tspan3784-8-4-4-1"
       x="926.88538"
       y="71.821945"
       style="font-style:normal;font-variant:normal;font-weight:normal;font-stretch:normal;fill:#ff0000;font-family:Palatino Sans LT Pro;-inkscape-font-specification:Palatino Sans LT Pro">:</tspan></text>
  <g
     id="g3869">
    <path
       sodipodi:nodetypes="cc"
       inkscape:connector-curvature="0"
       id="path4003-4"
       d="m -938.66284,4.499531 0,67.315309"
       style="fill:none;stroke:#000000;stroke-width:1;stroke-linecap:butt;stroke-linejoin:miter;stroke-miterlimit:4;stroke-opacity:1;stroke-dasharray:none" />
    <path
       sodipodi:nodetypes="cc"
       inkscape:connector-curvature="0"
       id="path4152"
       d="m -964.81224,4.7500002 52.3125,0"
       style="fill:none;stroke:#000000;stroke-width:1;stroke-linecap:butt;stroke-linejoin:miter;stroke-miterlimit:4;stroke-opacity:1;stroke-dasharray:none" />
  </g>
  <path
     style="fill:none;stroke:#000000;stroke-width:1;stroke-linecap:butt;stroke-linejoin:miter;stroke-miterlimit:4;stroke-opacity:1;stroke-dasharray:none"
     d="m -909.20673,3.9992061 -0.21678,43.9181569 c -0.0949,19.227811 9.80753,23.963995 25.0981,24.372891 13.84369,0.370203 26.88055,-4.584867 26.90424,-23.957577 l 0.0542,-44.3224223"
     id="path4154"
     inkscape:connector-curvature="0"
     sodipodi:nodetypes="csssc" />
  <path
     style="fill:none;stroke:#000000;stroke-width:1px;stroke-linecap:butt;stroke-linejoin:miter;stroke-opacity:1"
     d="m -335.62303,0.21951705 c 17.3841,18.29502095 17.7864,58.16310395 -0.1703,78.03694895"
     id="path4156"
     inkscape:connector-curvature="0"
     sodipodi:nodetypes="cc" />
  <path
     style="fill:none;stroke:#000000;stroke-width:1px;stroke-linecap:butt;stroke-linejoin:miter;stroke-opacity:1"
     d="m -346.71753,0.21951661 c -17.384,18.29502139 -17.7863,58.16310439 0.1704,78.03694939"
     id="path4156-3"
     inkscape:connector-curvature="0"
     sodipodi:nodetypes="cc" />
  <g
     id="g3907">
    <path
       sodipodi:nodetypes="cc"
       inkscape:connector-curvature="0"
       id="path4194"
       d="m -135.00393,4.0102547 0.1377,51.7437953"
       style="fill:none;stroke:#000000;stroke-width:1px;stroke-linecap:butt;stroke-linejoin:miter;stroke-opacity:1" />
    <path
       inkscape:connector-curvature="0"
       id="path4198"
       d="m -132.66973,69.265625 c 0,1.164976 -0.9444,2.109375 -2.1094,2.109375 -1.165,0 -2.1094,-0.944399 -2.1094,-2.109375 0,-1.164976 0.9444,-2.109375 2.1094,-2.109375 1.165,0 2.1094,0.944399 2.1094,2.109375 z"
       style="opacity:0.69360268;fill:none;stroke:#000000;stroke-width:1;stroke-linecap:butt;stroke-linejoin:round;stroke-miterlimit:4;stroke-opacity:1;stroke-dashoffset:0" />
  </g>
  <g
     id="g3901">
    <path
       inkscape:connector-curvature="0"
       id="path4198-2"
       d="m -245.40233,29.635723 c 0,1.164976 -0.9444,2.109375 -2.1094,2.109375 -1.165,0 -2.1094,-0.944399 -2.1094,-2.109375 0,-1.164976 0.9444,-2.109375 2.1094,-2.109375 1.165,0 2.1094,0.944399 2.1094,2.109375 z"
       style="opacity:0.69360268;fill:none;stroke:#000000;stroke-width:1;stroke-linecap:butt;stroke-linejoin:round;stroke-miterlimit:4;stroke-opacity:1;stroke-dashoffset:0" />
    <path
       inkscape:connector-curvature="0"
       id="path4198-21"
       d="m -245.40233,69 c 0,1.164976 -0.9444,2.109375 -2.1094,2.109375 -1.165,0 -2.1094,-0.944399 -2.1094,-2.109375 0,-1.164976 0.9444,-2.109375 2.1094,-2.109375 1.165,0 2.1094,0.944399 2.1094,2.109375 z"
       style="opacity:0.69360268;fill:none;stroke:#000000;stroke-width:1;stroke-linecap:butt;stroke-linejoin:round;stroke-miterlimit:4;stroke-opacity:1;stroke-dashoffset:0" />
  </g>
  <path
     style="opacity:0.69360268;fill:none;stroke:#000000;stroke-width:1;stroke-linecap:butt;stroke-linejoin:round;stroke-miterlimit:4;stroke-opacity:1;stroke-dashoffset:0"
     d="m -230.19953,69 c 0,1.164976 -0.9444,2.109375 -2.1094,2.109375 -1.165,0 -2.1094,-0.944399 -2.1094,-2.109375 0,-1.164976 0.9444,-2.109375 2.1094,-2.109375 1.165,0 2.1094,0.944399 2.1094,2.109375 z"
     id="path4198-21-7"
     inkscape:connector-curvature="0" />
  <path
     style="fill:none;stroke:#000000;stroke-width:1px;stroke-linecap:butt;stroke-linejoin:miter;stroke-opacity:1"
     d="m -209.83043,60.755574 -7.7782,19.268659"
     id="path4265"
     inkscape:connector-curvature="0"
     sodipodi:nodetypes="cc" />
  <path
     style="fill:none;stroke:#000000;stroke-width:1px;stroke-linecap:butt;stroke-linejoin:miter;stroke-opacity:1"
     d="m -192.32953,3.2147599 -7.7782,19.2686591"
     id="path4265-6"
     inkscape:connector-curvature="0"
     sodipodi:nodetypes="cc" />
  <g
     id="g3895">
    <path
       inkscape:connector-curvature="0"
       id="path4198-21-7-1"
       d="m -304.88703,69.15625 c 0,1.164976 -0.9444,2.109375 -2.1094,2.109375 -1.165,0 -2.1094,-0.944399 -2.1094,-2.109375 0,-1.164976 0.9444,-2.109375 2.1094,-2.109375 1.165,0 2.1094,0.944399 2.1094,2.109375 z"
       style="opacity:0.69360268;fill:none;stroke:#000000;stroke-width:1;stroke-linecap:butt;stroke-linejoin:round;stroke-miterlimit:4;stroke-opacity:1;stroke-dashoffset:0" />
    <path
       sodipodi:nodetypes="cssc"
       inkscape:connector-curvature="0"
       id="path4310"
       d="m -308.07106,3.9218663 c 6.89474,-0.5288878 13.58469,2.3878031 16.07967,8.0125147 2.80536,6.324456 2.04768,14.705523 -6.64448,22.137518 -7.72534,6.60535 -9.81713,6.535368 -8.5955,21.159404"
       style="fill:none;stroke:#000000;stroke-width:1px;stroke-linecap:butt;stroke-linejoin:miter;stroke-opacity:1" />
  </g>
  <path
     style="fill:none;stroke:#000000;stroke-width:1px;stroke-linecap:butt;stroke-linejoin:miter;stroke-opacity:1"
     d="m -178.43497,45.5 20.5,0"
     id="path4312"
     inkscape:connector-curvature="0" />
  <path
     style="fill:none;stroke:#000000;stroke-width:1;stroke-miterlimit:4;stroke-opacity:1;stroke-dashoffset:0.99999957"
     d="m -2127.5,4.2187498 51.75,0 0,67.2812502 -51.75,0 z"
     id="rect3055"
     inkscape:connector-curvature="0"
     sodipodi:nodetypes="ccccc" />
</svg>
